<?xml version="1.0" encoding="UTF-8" standalone="no"?>
<!-- Created with Inkscape (http://www.inkscape.org/) -->
<svg
   xmlns:dc="http://purl.org/dc/elements/1.1/"
   xmlns:cc="http://web.resource.org/cc/"
   xmlns:rdf="http://www.w3.org/1999/02/22-rdf-syntax-ns#"
   xmlns:svg="http://www.w3.org/2000/svg"
   xmlns="http://www.w3.org/2000/svg"
   xmlns:xlink="http://www.w3.org/1999/xlink"
   xmlns:sodipodi="http://sodipodi.sourceforge.net/DTD/sodipodi-0.dtd"
   xmlns:inkscape="http://www.inkscape.org/namespaces/inkscape"
   width="1600px"
   height="1200px"
   id="svg2318"
   sodipodi:version="0.32"
   inkscape:version="0.45.1"
   sodipodi:docbase="/home/sigi"
   sodipodi:docname="arch_UT.svg"
   inkscape:output_extension="org.inkscape.output.svg.inkscape"
   inkscape:export-filename="/home/sigi/arch_UT.png"
   inkscape:export-xdpi="78.75"
   inkscape:export-ydpi="78.75">
  <defs
     id="defs2320">
    <linearGradient
       inkscape:collect="always"
       id="linearGradient27458">
      <stop
         style="stop-color:#000000;stop-opacity:1;"
         offset="0"
         id="stop27460" />
      <stop
         style="stop-color:#000000;stop-opacity:0;"
         offset="1"
         id="stop27462" />
    </linearGradient>
    <linearGradient
       id="linearGradient16333">
      <stop
         id="stop16335"
         offset="0"
         style="stop-color:#000000;stop-opacity:1;" />
      <stop
         style="stop-color:#0f1a7a;stop-opacity:0.9254902;"
         offset="0.16666667"
         id="stop16345" />
      <stop
         style="stop-color:#1f3471;stop-opacity:0.85245901;"
         offset="0.5"
         id="stop16339" />
      <stop
         id="stop16343"
         offset="0.56703651"
         style="stop-color:#1e7fd1;stop-opacity:0.99180329;" />
      <stop
         id="stop16341"
         offset="0.73394376"
         style="stop-color:#353a9a;stop-opacity:0.81960785;" />
      <stop
         id="stop16337"
         offset="1"
         style="stop-color:#000000;stop-opacity:1" />
    </linearGradient>
    <linearGradient
       id="linearGradient11358">
      <stop
         style="stop-color:#00005d;stop-opacity:1;"
         offset="0"
         id="stop11360" />
      <stop
         style="stop-color:#000000;stop-opacity:0;"
         offset="1"
         id="stop11362" />
    </linearGradient>
    <linearGradient
       gradientUnits="userSpaceOnUse"
       id="path1082_2_"
       y2="129.3468"
       x2="112.49853"
       y1="6.1372099"
       x1="112.49854"
       gradientTransform="translate(287,-83)">
      <stop
         id="stop193"
         offset="0"
         style="stop-color:#ffffff;stop-opacity:0" />
      <stop
         id="stop195"
         offset="1"
         style="stop-color:#ffffff;stop-opacity:0.27450982;" />
      <midPointStop
         id="midPointStop197"
         style="stop-color:#FFFFFF"
         offset="0" />
      <midPointStop
         id="midPointStop199"
         style="stop-color:#FFFFFF"
         offset="0.5" />
      <midPointStop
         id="midPointStop201"
         style="stop-color:#000000"
         offset="1" />
    </linearGradient>
    <linearGradient
       id="linearGradient3388">
      <stop
         style="stop-color:#000000;stop-opacity:0;"
         offset="0"
         id="stop3390" />
      <stop
         style="stop-color:#000000;stop-opacity:0.37113401;"
         offset="1"
         id="stop3392" />
    </linearGradient>
    <linearGradient
       inkscape:collect="always"
       xlink:href="#linearGradient3388"
       id="linearGradient4416"
       gradientUnits="userSpaceOnUse"
       gradientTransform="matrix(0.6551957,0,0,0.6551957,923.65947,976.36541)"
       x1="490.72305"
       y1="237.72447"
       x2="490.72305"
       y2="183.9644" />
    <linearGradient
       id="linearGradient4346">
      <stop
         style="stop-color:#133317;stop-opacity:0.8114754;"
         offset="0"
         id="stop4348" />
      <stop
         id="stop17318"
         offset="0.10818713"
         style="stop-color:#20b5ae;stop-opacity:0.86666667;" />
      <stop
         id="stop17316"
         offset="0.34134746"
         style="stop-color:#2e2e76;stop-opacity:0.9254902;" />
      <stop
         style="stop-color:#26868f;stop-opacity:0.96078432;"
         offset="0.52651316"
         id="stop17320" />
      <stop
         id="stop17322"
         offset="0.57764101"
         style="stop-color:#2c484b;stop-opacity:0.98039216;" />
      <stop
         style="stop-color:#6d90a8;stop-opacity:1;"
         offset="1"
         id="stop4350" />
    </linearGradient>
    <linearGradient
       inkscape:collect="always"
       xlink:href="#linearGradient4346"
       id="linearGradient4352"
       x1="400.6142"
       y1="634.15063"
       x2="616.48553"
       y2="666.97791"
       gradientUnits="userSpaceOnUse" />
    <linearGradient
       inkscape:collect="always"
       id="linearGradient5323">
      <stop
         style="stop-color:#6e6e6e;stop-opacity:1"
         offset="0"
         id="stop5325" />
      <stop
         style="stop-color:#4d4d4d;stop-opacity:1"
         offset="1"
         id="stop5327" />
    </linearGradient>
    <linearGradient
       inkscape:collect="always"
       xlink:href="#linearGradient5323"
       id="linearGradient5329"
       x1="291.83591"
       y1="238.08237"
       x2="650.81366"
       y2="348.96875"
       gradientUnits="userSpaceOnUse" />
    <linearGradient
       inkscape:collect="always"
       xlink:href="#linearGradient4346"
       id="linearGradient11356"
       x1="741.05261"
       y1="370.85089"
       x2="846.17114"
       y2="1033.2084"
       gradientUnits="userSpaceOnUse"
       gradientTransform="translate(-35,-50)" />
    <linearGradient
       inkscape:collect="always"
       xlink:href="#linearGradient16333"
       id="linearGradient16331"
       x1="756.66663"
       y1="354.99997"
       x2="948.33331"
       y2="971.66669"
       gradientUnits="userSpaceOnUse"
       gradientTransform="translate(-35,-50)" />
    <linearGradient
       inkscape:collect="always"
       xlink:href="#linearGradient5323"
       id="linearGradient21206"
       gradientUnits="userSpaceOnUse"
       x1="291.83591"
       y1="238.08237"
       x2="650.81366"
       y2="348.96875" />
    <filter
       inkscape:collect="always"
       x="-0.39651497"
       width="1.7930299"
       y="-0.26611386"
       height="1.5322277"
       id="filter25456">
      <feGaussianBlur
         inkscape:collect="always"
         stdDeviation="8.6758219"
         id="feGaussianBlur25458" />
    </filter>
    <filter
       inkscape:collect="always"
       x="-0.38593156"
       width="1.7718631"
       y="-0.3539834"
       height="1.7079668"
       id="filter25460">
      <feGaussianBlur
         inkscape:collect="always"
         stdDeviation="8.6758219"
         id="feGaussianBlur25462" />
    </filter>
    <filter
       inkscape:collect="always"
       x="-0.56858943"
       width="2.1371789"
       y="-0.34884396"
       height="1.6976879"
       id="filter25464">
      <feGaussianBlur
         inkscape:collect="always"
         stdDeviation="8.6758219"
         id="feGaussianBlur25466" />
    </filter>
    <filter
       inkscape:collect="always"
       x="-0.40713736"
       width="1.8142747"
       y="-0.34339245"
       height="1.6867849"
       id="filter25468">
      <feGaussianBlur
         inkscape:collect="always"
         stdDeviation="8.6758219"
         id="feGaussianBlur25470" />
    </filter>
    <linearGradient
       inkscape:collect="always"
       xlink:href="#linearGradient27458"
       id="linearGradient27464"
       x1="-48.333332"
       y1="604.16665"
       x2="1638.3333"
       y2="604.16665"
       gradientUnits="userSpaceOnUse" />
    <filter
       inkscape:collect="always"
       id="filter3269">
      <feGaussianBlur
         inkscape:collect="always"
         stdDeviation="7.6005978"
         id="feGaussianBlur3271" />
    </filter>
  </defs>
  <sodipodi:namedview
     id="base"
     pagecolor="#ffffff"
     bordercolor="#666666"
     borderopacity="1.0"
     inkscape:pageopacity="0.0"
     inkscape:pageshadow="2"
     inkscape:zoom="0.6"
     inkscape:cx="953.7723"
     inkscape:cy="594.3053"
     inkscape:current-layer="layer1"
     inkscape:document-units="px"
     inkscape:window-width="1400"
     inkscape:window-height="1036"
     inkscape:window-x="0"
     inkscape:window-y="14" />
  <metadata
     id="metadata2323">
    <rdf:RDF>
      <cc:Work
         rdf:about="">
        <dc:format>image/svg+xml</dc:format>
        <dc:type
           rdf:resource="http://purl.org/dc/dcmitype/StillImage" />
      </cc:Work>
    </rdf:RDF>
  </metadata>
  <g
     id="layer1"
     inkscape:label="Layer 1"
     inkscape:groupmode="layer">
    <rect
       style="opacity:1;color:#000000;fill:#000000;fill-opacity:1;fill-rule:nonzero;stroke:url(#linearGradient27464);stroke-width:0.69999999;stroke-linecap:butt;stroke-linejoin:miter;marker:none;marker-start:none;marker-mid:none;marker-end:none;stroke-miterlimit:4;stroke-dasharray:none;stroke-dashoffset:0;stroke-opacity:1;visibility:visible;display:inline;overflow:visible;enable-background:accumulate"
       id="rect12393"
       width="1686.6666"
       height="1241.6666"
       x="-48.333332"
       y="-16.666668" />
    <path
       sodipodi:nodetypes="ccccccccccccsscccccccccccccc"
       style="opacity:0.83067094;fill:url(#linearGradient16331);fill-opacity:1;fill-rule:evenodd;stroke:none;stroke-width:1;stroke-linecap:round;stroke-linejoin:round;stroke-miterlimit:10;stroke-dasharray:none;stroke-opacity:1"
       d="M 797.91841,323.00178 C 776.7978,374.78355 764.05901,408.65524 740.54391,458.89769 C 754.96163,474.18058 772.65871,491.97788 801.39821,512.07829 C 770.50036,499.36406 749.424,486.599 733.6734,473.35282 C 731.79248,477.27764 597.40145,752.08322 564.02999,772.8861 C 440.99776,605.70328 552.9124,451.231 604.50562,409.29916 C 628.39679,419.15879 632.92543,418.97854 650.94535,427.79636 C 670.75759,394.77635 695.13062,357.55696 758.55177,325.67278 C 565.97715,341.32979 393.96234,586.46236 561.78896,795.85599 C 636.99184,747.44003 694.24581,727.3405 748.57454,717.12697 C 746.24173,707.09333 744.91542,696.23992 745.00537,684.91538 L 745.09474,682.50604 C 746.28798,634.32571 771.35154,597.27489 801.04131,599.79073 C 830.73131,602.30628 853.80901,643.42709 852.61581,691.60742 C 852.39131,700.67368 851.36881,709.39501 849.58201,717.48389 C 928.04747,735.08912 981.9134,759.80111 1018.3627,787.6031 C 903.35656,908.33751 782.57712,892.72488 755.52332,888.2319 C 750.96952,874.57224 748.99173,862.76013 745.66443,844.6051 C 706.58756,853.95007 650.99366,853.20211 596.44201,831.38483 C 736.89036,945.40087 921.52793,923.06163 1034.2947,795.75488 C 1019.6668,768.82388 1007.4941,746.31534 995.0255,723.19456 C 975.3856,707.9722 954.90001,688.16018 913.11311,666.71262 C 941.83491,674.17561 962.39931,682.78615 978.4288,692.41063 C 945.91568,638.74055 813.55631,369.93501 815.22492,341.28962 C 966.0602,345.14423 1091.5128,475.43562 1087.2838,610.48101 C 1076.0303,617.03898 1068.0268,622.01298 1050.27,632.79807 C 1060.0132,661.9165 1071.5261,704.04419 1063.3027,754.73629 C 1176.7462,542.9284 1017.12,323.50641 797.91841,323.00178 z "
       id="path9389" />
    <path
       style="opacity:0.59744409;fill:#004fff;fill-opacity:1;fill-rule:evenodd;stroke:none;stroke-width:1;stroke-linecap:round;stroke-linejoin:round;stroke-miterlimit:10;stroke-dasharray:none;stroke-opacity:1;filter:url(#filter3269)"
       d="M 797.90625,323 C 776.78565,374.78178 764.04635,408.6638 740.53125,458.90625 C 754.949,474.18912 772.66675,491.99334 801.40625,512.09375 C 770.50842,499.3795 749.4381,486.58993 733.6875,473.34375 C 731.80658,477.26855 597.40271,752.07212 564.03125,772.875 C 440.99904,605.69217 552.90678,451.24434 604.5,409.3125 C 628.39117,419.17213 632.91758,418.96343 650.9375,427.78125 C 670.74972,394.76124 695.14135,357.57168 758.5625,325.6875 C 565.98789,341.3445 393.95463,586.45012 561.78125,795.84375 C 636.98415,747.42776 694.23377,727.33853 748.5625,717.125 C 746.22971,707.09138 744.91005,696.23079 745,684.90625 L 745.09375,682.5 C 746.287,634.31967 771.34148,597.26541 801.03125,599.78125 C 830.72124,602.29682 853.8182,643.41342 852.625,691.59375 C 852.40053,700.66001 851.38055,709.37987 849.59375,717.46875 C 928.05919,735.07398 981.9257,759.79176 1018.375,787.59375 C 903.36889,908.32817 782.58505,892.71173 755.53125,888.21875 C 750.97745,874.55912 748.98355,862.74878 745.65625,844.59375 C 706.57938,853.93872 650.98915,853.19228 596.4375,831.375 C 736.88584,945.39104 921.51448,923.05675 1034.2812,795.75 C 1019.6534,768.819 1007.4998,746.30828 995.0312,723.1875 C 975.3913,707.96512 954.9119,688.16631 913.125,666.71875 C 941.84681,674.18171 962.40801,682.78177 978.4375,692.40625 C 945.92441,638.73616 813.55014,369.92664 815.21875,341.28125 C 966.054,345.13587 1091.5103,475.42336 1087.2812,610.46875 C 1076.0277,617.02671 1068.0381,622.02741 1050.2812,632.8125 C 1060.0244,661.9309 1071.5359,704.0579 1063.3125,754.75 C 1176.756,542.94213 1017.1078,323.50463 797.90625,323 z M 671.46875,368.59375 C 666.37071,374.14832 661.50646,379.90962 656.875,385.875 C 652.24354,391.84038 647.84488,398.00986 643.71875,404.34375 C 640.54872,403.38652 637.48254,402.16195 634.4375,400.875 C 631.39246,399.58805 628.36855,398.23872 625.28125,397.03125 C 628.84002,394.34222 632.4468,391.74101 636.125,389.21875 C 639.8032,386.69649 643.55282,384.25314 647.34375,381.90625 C 651.13468,379.55936 654.97805,377.2879 658.875,375.125 C 662.77195,372.9621 666.72248,370.9078 670.71875,368.9375 L 671.46875,368.59375 z M 798.375,369.84375 C 808.96483,393.71504 819.77702,417.48598 830.8125,441.15625 C 841.84798,464.82652 853.10593,488.40306 864.5625,511.875 C 873.15493,529.47896 881.87083,547.0366 890.6875,564.53125 C 893.62639,570.3628 896.56797,576.18093 899.53125,582 C 908.4211,599.45722 917.43001,616.84112 926.53125,634.1875 C 929.565,639.96963 932.59997,645.76041 935.65625,651.53125 C 932.31426,651.47984 929.21658,651.5998 926.34375,651.875 C 923.47092,652.1502 920.81002,652.5838 918.375,653.09375 C 915.93998,653.6037 913.71606,654.19092 911.6875,654.84375 C 909.65894,655.49658 907.84094,656.2024 906.1875,656.90625 C 902.88062,658.31395 900.30699,659.75189 898.3125,660.8125 C 897.31525,661.3428 896.46617,661.75677 895.75,662.0625 C 895.03383,662.36823 894.4352,662.54195 893.96875,662.53125 C 905.1449,671.2039 918.38853,681.13995 931.78125,691.375 C 935.12943,693.93376 938.47426,696.50975 941.8125,699.09375 C 945.15074,701.67775 948.48238,704.26976 951.75,706.84375 C 955.01763,709.41775 958.24157,711.99517 961.375,714.53125 C 962.94171,715.79929 964.47632,717.05937 966,718.3125 C 967.5237,719.56563 969.0257,720.79666 970.5,722.03125 C 975.3696,728.06756 978.7419,732.16933 981.8125,736.625 C 983.3478,738.85284 984.812,741.19558 986.3438,743.875 C 987.1095,745.21471 987.896,746.6328 988.7188,748.1875 C 989.5413,749.7422 990.3999,751.4335 991.3125,753.28125 C 986.2856,750.27583 981.4082,747.48118 976.625,744.875 C 971.8418,742.26882 967.162,739.85837 962.5625,737.59375 C 957.96304,735.32913 953.4444,733.19948 948.96875,731.21875 C 944.4931,729.23802 940.03678,727.41078 935.625,725.65625 C 926.80145,722.14719 918.05267,719.01283 909.125,716.0625 C 900.19733,713.11217 891.10502,710.32178 881.59375,707.46875 C 880.80512,706.9598 879.69989,706.64492 878.5,706.375 C 877.30011,706.10508 876.00542,705.90047 874.78125,705.65625 C 873.55708,705.41203 872.42394,705.11934 871.5625,704.6875 C 871.13178,704.47158 870.76748,704.20907 870.5,703.90625 C 870.23252,703.60343 870.05586,703.26014 870,702.84375 C 870.33406,698.46881 870.53426,694.04123 870.5625,689.59375 C 870.59074,685.14627 870.4358,680.68096 870.125,676.21875 C 869.8142,671.75654 869.3393,667.29412 868.65625,662.875 C 867.9732,658.45588 867.08851,654.06823 866,649.75 C 864.91149,645.43177 863.62094,641.19077 862.09375,637.03125 C 860.56656,632.87173 858.81158,628.818 856.8125,624.875 C 854.81342,620.932 852.56669,617.10617 850.0625,613.4375 C 847.55831,609.76883 844.79251,606.24277 841.75,602.90625 C 840.68466,601.47867 839.54668,600.13003 838.34375,598.84375 C 837.14082,597.55747 835.88771,596.33068 834.5625,595.1875 C 833.23729,594.04432 831.83844,592.96704 830.40625,591.96875 C 828.97406,590.97046 827.49261,590.03911 825.96875,589.1875 C 822.92103,587.48428 819.69757,586.10575 816.375,585 C 813.05243,583.89425 809.63122,583.0877 806.15625,582.59375 C 802.68128,582.0998 799.16117,581.89906 795.65625,582.03125 C 792.15133,582.16344 788.66242,582.60235 785.25,583.375 C 783.54379,583.76133 781.84763,584.23212 780.1875,584.78125 C 778.52737,585.33038 776.91123,585.97377 775.3125,586.6875 C 773.71377,587.40123 772.14704,588.18238 770.625,589.0625 C 769.10296,589.94262 767.61753,590.92046 766.1875,591.96875 C 764.18289,593.6222 762.24682,595.33503 760.40625,597.125 C 758.56568,598.91497 756.83545,600.77215 755.15625,602.6875 C 753.47705,604.60285 751.86425,606.5954 750.34375,608.625 C 748.82325,610.6546 747.39572,612.74228 746.03125,614.875 C 744.66678,617.00772 743.36737,619.18155 742.15625,621.40625 C 740.94513,623.63095 739.81043,625.88195 738.75,628.1875 C 736.62913,632.7986 734.81541,637.56979 733.28125,642.4375 C 731.74709,647.30521 730.50007,652.27725 729.53125,657.3125 C 728.56243,662.34775 727.86235,667.44876 727.4375,672.5625 C 727.01265,677.67624 726.83976,682.80309 726.9375,687.90625 C 727.03524,693.00941 727.40103,698.09023 728,703.09375 C 717.64085,705.69718 707.5833,708.41724 697.6875,711.40625 C 692.7396,712.90075 687.82638,714.47077 682.9375,716.125 C 678.04862,717.77923 673.18024,719.51883 668.3125,721.375 C 663.44476,723.23117 658.60323,725.18092 653.71875,727.28125 C 648.83427,729.38158 643.90784,731.6133 638.96875,734 C 634.02966,736.3867 629.06284,738.94095 624.03125,741.65625 C 618.99966,744.37155 613.91196,747.25764 608.75,750.34375 C 620.35471,729.8899 631.7023,709.29655 642.84375,688.59375 C 653.9852,667.89095 664.91622,647.08695 675.75,626.21875 C 697.41755,584.48235 718.62962,542.49048 740,500.59375 C 745.88103,502.93082 751.30503,504.97752 756.3125,506.75 C 761.31997,508.52248 765.90717,510.024 770.125,511.3125 C 774.34283,512.601 778.17538,513.67737 781.6875,514.5625 C 785.19962,515.44763 788.39091,516.12512 791.28125,516.6875 C 797.06193,517.81226 801.67162,518.37009 805.46875,518.6875 C 809.26588,519.00491 812.26499,519.09505 814.75,519.25 C 814.45009,518.5555 814.12412,517.83694 813.75,517.09375 C 813.37588,516.35056 812.95362,515.58275 812.5,514.78125 C 811.59276,513.17825 810.50757,511.45865 809.25,509.59375 C 806.73485,505.86395 803.48643,501.56482 799.3125,496.5 C 795.13857,491.43518 790.05098,485.59558 783.875,478.8125 C 777.69902,472.02942 770.42755,464.29082 761.90625,455.40625 C 767.94268,442.5884 773.61651,429.59308 779.125,416.53125 C 784.63349,403.46942 789.97665,390.34109 795.34375,377.21875 C 796.35417,374.76042 797.36458,372.30208 798.375,369.84375 z M 1081.5938,635.0625 C 1081.2242,639.80728 1080.6978,644.52631 1080.0312,649.21875 C 1079.3649,653.91119 1078.5585,658.57705 1077.625,663.25 C 1076.3328,657.23456 1074.811,651.27411 1073.0625,645.375 C 1072.5428,644.65946 1072.2139,644.01948 1072.0312,643.4375 C 1071.8488,642.85552 1071.8135,642.31662 1071.9062,641.84375 C 1071.9992,641.37088 1072.2247,640.95072 1072.5312,640.5625 C 1072.838,640.17428 1073.2288,639.82802 1073.6875,639.5 C 1075.5225,638.18792 1078.3235,637.2645 1080.125,635.9375 L 1080.75,635.5625 L 1081.5938,635.0625 z M 731.3125,865.625 C 732.0978,869.17063 732.63553,872.78409 733.34375,876.34375 C 733.57982,877.5303 733.83591,878.70191 734.125,879.875 C 727.4681,878.52482 720.8705,876.85156 714.34375,874.90625 C 707.817,872.96094 701.3611,870.74356 695,868.3125 C 700.87301,868.30818 706.7633,868.10045 712.625,867.6875 C 718.4867,867.27455 724.31981,866.65636 730.125,865.8125 L 730.3125,865.78125 L 731.3125,865.625 z "
       id="path4385" />
    <path
       style="fill:#005fd0;fill-opacity:1;fill-rule:evenodd;stroke:none;stroke-width:0.5;stroke-miterlimit:4;stroke-dasharray:none;stroke-opacity:1;filter:url(#filter25468)"
       d="M 1176.2528,1070.7285 C 1168.1792,1070.7151 1161.4791,1072.3707 1158.8883,1073.2738 L 1156.2209,1087.6745 C 1156.2144,1087.7275 1169.4962,1084.1327 1175.3462,1084.3446 C 1185.0321,1084.6926 1185.9236,1088.0464 1185.7544,1092.5735 C 1185.9195,1092.8383 1183.2554,1088.4831 1174.8755,1088.337 C 1164.3036,1088.1546 1149.3837,1092.0802 1149.4041,1108.0376 C 1149.1191,1125.9873 1162.8123,1131.2676 1172.1383,1131.3645 C 1180.5224,1131.2119 1184.4553,1128.1894 1186.6087,1126.5701 C 1189.4379,1123.612 1192.6747,1120.6372 1195.7616,1117.0685 C 1192.8407,1122.3756 1190.3084,1126.0449 1187.6721,1128.854 L 1187.6721,1131.2251 L 1200.4165,1129.0807 L 1200.5037,1094.4389 C 1200.3746,1089.536 1203.3162,1070.7741 1176.2528,1070.7285 z M 1174.4222,1100.8896 C 1179.7048,1100.9621 1185.763,1103.5659 1185.7718,1109.8333 C 1185.7992,1115.534 1178.6308,1118.5989 1173.9689,1118.5504 C 1169.305,1118.502 1163.1173,1114.8852 1163.09,1109.3277 C 1163.1793,1104.36 1168.9253,1100.7617 1174.4222,1100.8896 z "
       id="path22189" />
    <path
       id="path2284"
       d="M 1176.2528,1070.7285 C 1168.1792,1070.7151 1161.4791,1072.3707 1158.8883,1073.2738 L 1156.2209,1087.6745 C 1156.2144,1087.7275 1169.4962,1084.1327 1175.3462,1084.3446 C 1185.0321,1084.6926 1185.9236,1088.0464 1185.7544,1092.5735 C 1185.9195,1092.8383 1183.2554,1088.4831 1174.8755,1088.337 C 1164.3036,1088.1546 1149.3837,1092.0802 1149.4041,1108.0376 C 1149.1191,1125.9873 1162.8123,1131.2676 1172.1383,1131.3645 C 1180.5224,1131.2119 1184.4553,1128.1894 1186.6087,1126.5701 C 1189.4379,1123.612 1192.6747,1120.6372 1195.7616,1117.0685 C 1192.8407,1122.3756 1190.3084,1126.0449 1187.6721,1128.854 L 1187.6721,1131.2251 L 1200.4165,1129.0807 L 1200.5037,1094.4389 C 1200.3746,1089.536 1203.3162,1070.7741 1176.2528,1070.7285 z M 1174.4222,1100.8896 C 1179.7048,1100.9621 1185.763,1103.5659 1185.7718,1109.8333 C 1185.7992,1115.534 1178.6308,1118.5989 1173.9689,1118.5504 C 1169.305,1118.502 1163.1173,1114.8852 1163.09,1109.3277 C 1163.1793,1104.36 1168.9253,1100.7617 1174.4222,1100.8896 z "
       style="fill:#000000;fill-opacity:1;fill-rule:evenodd;stroke:none;stroke-width:0.5;stroke-miterlimit:4;stroke-dasharray:none;stroke-opacity:1" />
    <path
       inkscape:export-ydpi="90"
       inkscape:export-xdpi="90"
       inkscape:export-filename="/home/thayer/linux/artwork-arch/sample-hangar2.png"
       id="path22191"
       d="M 1208.9076,1073.9295 L 1208.8211,1131.296 L 1223.6678,1128.4355 L 1223.6928,1095.9095 C 1223.6964,1091.0664 1230.6138,1085.4074 1239.2931,1085.4976 C 1241.1352,1082.1646 1244.5979,1073.6467 1245.4415,1071.7091 C 1226.0511,1071.6627 1225.8042,1077.2824 1222.4318,1080.0469 C 1222.3966,1074.7733 1222.4199,1071.6075 1222.4199,1071.6075 L 1208.9076,1073.9295 z "
       style="fill:#005fd0;fill-opacity:1;fill-rule:evenodd;stroke:none;stroke-width:0.5;stroke-miterlimit:4;stroke-dasharray:none;stroke-opacity:1;filter:url(#filter25464)" />
    <path
       style="fill:#000000;fill-opacity:1;fill-rule:evenodd;stroke:none;stroke-width:0.5;stroke-miterlimit:4;stroke-dasharray:none;stroke-opacity:1"
       d="M 1208.9076,1073.9295 L 1208.8211,1131.296 L 1223.6678,1128.4355 L 1223.6928,1095.9095 C 1223.6964,1091.0664 1230.6138,1085.4074 1239.2931,1085.4976 C 1241.1352,1082.1646 1244.5979,1073.6467 1245.4415,1071.7091 C 1226.0511,1071.6627 1225.8042,1077.2824 1222.4318,1080.0469 C 1222.3966,1074.7733 1222.4199,1071.6075 1222.4199,1071.6075 L 1208.9076,1073.9295 z "
       id="path2286"
       inkscape:export-filename="/home/thayer/linux/artwork-arch/sample-hangar2.png"
       inkscape:export-xdpi="90"
       inkscape:export-ydpi="90" />
    <path
       sodipodi:nodetypes="ccccccccccc"
       inkscape:export-ydpi="90"
       inkscape:export-xdpi="90"
       inkscape:export-filename="/home/thayer/linux/artwork-arch/sample-hangar2.png"
       id="path22193"
       d="M 1292.4621,1081.4606 C 1292.3187,1081.3932 1284.7188,1072.571 1269.4398,1072.5014 C 1255.1284,1072.2635 1239.076,1077.812 1238.8191,1101.8091 C 1238.9444,1122.9078 1254.2394,1131.1533 1269.5208,1131.314 C 1285.8742,1131.4839 1292.3813,1121.0882 1292.7716,1120.8305 C 1290.8203,1119.1389 1283.5117,1111.8969 1283.5117,1111.8969 C 1283.5117,1111.8969 1278.9469,1118.397 1270.0899,1118.4796 C 1261.2309,1118.5639 1253.5303,1111.6324 1253.4211,1101.9609 C 1253.3076,1092.2893 1260.5001,1087.0494 1270.1564,1086.6261 C 1278.5163,1086.6243 1283.3393,1092.0228 1283.3393,1092.0228 L 1292.4621,1081.4606 z "
       style="fill:#005fd0;fill-opacity:1;fill-rule:evenodd;stroke:none;stroke-width:0.5;stroke-miterlimit:4;stroke-dasharray:none;stroke-opacity:1;filter:url(#filter25460)" />
    <path
       style="fill:#000000;fill-opacity:1;fill-rule:evenodd;stroke:none;stroke-width:0.5;stroke-miterlimit:4;stroke-dasharray:none;stroke-opacity:1"
       d="M 1292.4621,1081.4606 C 1292.3187,1081.3932 1284.7188,1072.571 1269.4398,1072.5014 C 1255.1284,1072.2635 1239.076,1077.812 1238.8191,1101.8091 C 1238.9444,1122.9078 1254.2394,1131.1533 1269.5208,1131.314 C 1285.8742,1131.4839 1292.3813,1121.0882 1292.7716,1120.8305 C 1290.8203,1119.1389 1283.5117,1111.8969 1283.5117,1111.8969 C 1283.5117,1111.8969 1278.9469,1118.397 1270.0899,1118.4796 C 1261.2309,1118.5639 1253.5303,1111.6324 1253.4211,1101.9609 C 1253.3076,1092.2893 1260.5001,1087.0494 1270.1564,1086.6261 C 1278.5163,1086.6243 1283.3393,1092.0228 1283.3393,1092.0228 L 1292.4621,1081.4606 z "
       id="path2288"
       inkscape:export-filename="/home/thayer/linux/artwork-arch/sample-hangar2.png"
       inkscape:export-xdpi="90"
       inkscape:export-ydpi="90"
       sodipodi:nodetypes="ccccccccccc" />
    <path
       style="fill:#005fd0;fill-opacity:1;fill-rule:evenodd;stroke:none;stroke-width:0.5;stroke-miterlimit:4;stroke-dasharray:none;stroke-opacity:1;filter:url(#filter25456)"
       d="M 1311.1759,1053.8522 L 1297.1588,1057.1472 L 1297.2634,1131.8701 L 1311.0713,1129.377 L 1311.2282,1094.2123 C 1311.2577,1090.525 1316.5624,1084.8625 1325.4196,1085.0419 C 1333.8883,1085.1299 1335.781,1090.6865 1335.7581,1091.388 L 1336.0022,1132.0968 L 1349.6183,1129.6909 L 1349.6706,1086.5238 C 1349.7602,1082.3701 1340.5722,1073.5977 1325.8032,1073.5354 C 1318.7844,1073.5467 1314.8974,1075.1355 1312.9193,1076.3074 C 1309.5348,1078.9215 1305.6668,1081.4263 1301.866,1084.6235 C 1305.3797,1080.1096 1308.3295,1076.9886 1311.2108,1074.6686 L 1311.1759,1053.8522 z "
       id="path22195" />
    <path
       id="path2290"
       d="M 1311.1759,1053.8522 L 1297.1588,1057.1472 L 1297.2634,1131.8701 L 1311.0713,1129.377 L 1311.2282,1094.2123 C 1311.2577,1090.525 1316.5624,1084.8625 1325.4196,1085.0419 C 1333.8883,1085.1299 1335.781,1090.6865 1335.7581,1091.388 L 1336.0022,1132.0968 L 1349.6183,1129.6909 L 1349.6706,1086.5238 C 1349.7602,1082.3701 1340.5722,1073.5977 1325.8032,1073.5354 C 1318.7844,1073.5467 1314.8974,1075.1355 1312.9193,1076.3074 C 1309.5348,1078.9215 1305.6668,1081.4263 1301.866,1084.6235 C 1305.3797,1080.1096 1308.3295,1076.9886 1311.2108,1074.6686 L 1311.1759,1053.8522 z "
       style="fill:#000000;fill-opacity:1;fill-rule:evenodd;stroke:none;stroke-width:0.5;stroke-miterlimit:4;stroke-dasharray:none;stroke-opacity:1" />
    <g
       transform="matrix(0.825951,0,1.1688148e-2,0.825951,1023.1978,535.61041)"
       style="fill:#000082;fill-opacity:1;stroke:none;stroke-width:0.5;stroke-miterlimit:4;stroke-dasharray:none;stroke-opacity:1"
       id="g5326">
      <path
         inkscape:export-ydpi="90"
         inkscape:export-xdpi="90"
         inkscape:export-filename="/home/thayer/linux/artwork-arch/sample-hangar2.png"
         id="path2292"
         d="M 400.67581,629.79609 L 408.35748,627.88034 L 407.42897,719.08826 L 399.63323,720.41252 L 400.67581,629.79609 z "
         style="fill:#000082;fill-opacity:1;fill-rule:evenodd;stroke:none;stroke-width:0.5;stroke-miterlimit:4;stroke-dasharray:none;stroke-opacity:1" />
      <path
         inkscape:export-ydpi="90"
         inkscape:export-xdpi="90"
         inkscape:export-filename="/home/thayer/linux/artwork-arch/sample-hangar2.png"
         id="path2294"
         d="M 421.10266,657.01757 L 427.8533,654.03087 L 426.98522,719.43018 L 420.48743,720.76933 L 421.10266,657.01757 z M 419.84207,633.43441 L 425.31374,629.01908 L 429.73635,634.0186 L 424.26077,638.55081 L 419.84207,633.43441 z "
         style="fill:#000082;fill-opacity:1;fill-rule:evenodd;stroke:none;stroke-width:0.5;stroke-miterlimit:4;stroke-dasharray:none;stroke-opacity:1" />
      <path
         inkscape:export-ydpi="90"
         inkscape:export-xdpi="90"
         inkscape:export-filename="/home/thayer/linux/artwork-arch/sample-hangar2.png"
         id="path2296"
         d="M 440.44273,655.82614 L 448.12028,654.26413 L 447.96298,667.93633 C 447.95623,668.5235 452.38238,652.66269 472.648,653.01539 C 492.32786,653.12491 495.33201,668.36173 495.1771,671.77776 L 494.73951,719.85606 L 488.00907,721.31237 L 488.64223,673.82337 C 488.73965,672.43653 485.76079,660.70896 471.85317,660.66583 C 457.94808,660.62546 448.16953,670.76631 448.09496,677.2452 L 447.61369,719.07997 L 439.80981,721.11127 L 440.44273,655.82614 z "
         style="fill:#000082;fill-opacity:1;fill-rule:evenodd;stroke:none;stroke-width:0.5;stroke-miterlimit:4;stroke-dasharray:none;stroke-opacity:1" />
      <path
         inkscape:export-ydpi="90"
         inkscape:export-xdpi="90"
         inkscape:export-filename="/home/thayer/linux/artwork-arch/sample-hangar2.png"
         id="path2298"
         d="M 561.53301,720.20203 L 553.85541,721.76389 L 554.01278,708.09191 C 554.01954,707.50449 549.59077,723.36552 529.32774,723.01277 C 509.64791,722.90333 506.64375,707.66651 506.79866,704.25048 L 507.23623,656.17187 L 515.39297,654.52961 L 514.84653,702.01949 C 514.83161,703.31631 516.21498,715.31928 530.12257,715.36209 C 544.02768,715.40254 553.88879,706.9885 554.1371,694.31793 L 554.56815,656.84891 L 562.16595,654.91696 L 561.53301,720.20203 z "
         style="fill:#000082;fill-opacity:1;fill-rule:evenodd;stroke:none;stroke-width:0.5;stroke-miterlimit:4;stroke-dasharray:none;stroke-opacity:1" />
      <path
         inkscape:export-ydpi="90"
         inkscape:export-xdpi="90"
         inkscape:export-filename="/home/thayer/linux/artwork-arch/sample-hangar2.png"
         id="path2300"
         d="M 577.45461,655.28678 L 572.02746,659.48695 L 592.2264,686.42023 L 569.83548,717.53645 L 575.47047,721.76245 L 596.51412,692.86575 L 617.39202,722.44734 L 622.71929,718.24631 L 600.34351,686.61765 L 618.91314,661.04015 L 613.38121,656.30586 L 596.46012,679.97364 L 577.45461,655.28678 z "
         style="fill:#000082;fill-opacity:1;fill-rule:evenodd;stroke:none;stroke-width:0.5;stroke-miterlimit:4;stroke-dasharray:none;stroke-opacity:1" />
    </g>
    <path
       id="path17147"
       d="M 1401.2558,1094.2802 C 1398.9989,1094.3757 1396.8149,1094.4983 1394.7243,1094.6487 L 1394.8882,1131.2168 L 1401.3172,1129.5377 L 1401.2148,1094.9762 C 1401.2144,1094.7494 1401.2281,1094.5172 1401.2558,1094.2802 z M 1434.6707,1094.5668 L 1434.6912,1131.3805 L 1440.2401,1130.1726 L 1440.0557,1094.874 C 1438.2569,1094.7611 1436.4585,1094.6573 1434.6707,1094.5668 z M 1449.9246,1095.5905 L 1450.027,1117.2938 C 1449.9389,1120.1153 1452.5875,1132.7029 1468.8435,1132.7933 C 1485.5837,1133.0847 1489.0505,1119.9822 1489.0518,1120.4676 L 1489.093,1131.7491 L 1495.4196,1130.4592 L 1495.2968,1101.9787 C 1493.256,1101.69 1491.1439,1101.3352 1488.9906,1100.9345 L 1489.011,1109.0835 C 1488.9539,1119.5487 1480.902,1126.5001 1469.4168,1126.4666 C 1457.9291,1126.4313 1456.6429,1116.5221 1456.6404,1115.4511 L 1456.5992,1096.2048 C 1454.3843,1095.9823 1452.1587,1095.7802 1449.9246,1095.5905 z M 1384.2412,1095.7543 C 1382.2639,1096.0457 1380.4274,1096.3693 1378.7745,1096.7371 L 1378.9178,1130.93 L 1384.2822,1129.8244 L 1384.2412,1095.7543 z M 1367.9841,1099.3579 C 1365.8148,1099.8326 1363.6899,1100.2515 1361.6165,1100.6273 L 1361.6984,1130.6434 L 1368.1274,1129.5377 L 1368.0046,1099.3579 C 1367.9982,1099.3593 1367.9906,1099.3565 1367.9841,1099.3579 z M 1527.3808,1102.2859 C 1525.0945,1102.6122 1522.6518,1102.8712 1520.0305,1103.0433 L 1502.2379,1128.2683 L 1506.9468,1131.7491 L 1523.9821,1107.8754 L 1541.5699,1132.3224 L 1545.9308,1128.8417 L 1527.0736,1102.7158 L 1527.3808,1102.2859 z "
       style="opacity:0.7;fill:#093133;fill-opacity:1;fill-rule:evenodd;stroke:none;stroke-width:0.5;stroke-miterlimit:4;stroke-opacity:1" />
    <text
       id="text4418"
       y="1152.8372"
       x="1548.2104"
       style="font-size:14.8147192px;font-style:normal;font-weight:normal;text-align:end;text-anchor:end;fill:#4d4d4d;fill-opacity:1;stroke:none;stroke-width:1px;stroke-linecap:butt;stroke-linejoin:miter;stroke-opacity:1;font-family:Liberation Sans"
       xml:space="preserve"><tspan
         y="1152.8372"
         x="1548.2105"
         id="tspan4420"
         sodipodi:role="line">A simple, lightweight linux distribution.</tspan></text>
    <path
       id="path9384"
       d="M 671.46875,368.59375 L 670.71875,368.9375 C 666.72248,370.9078 662.77195,372.9621 658.875,375.125 C 654.97805,377.2879 651.13468,379.55936 647.34375,381.90625 C 643.55282,384.25314 639.8032,386.69649 636.125,389.21875 C 632.4468,391.74101 628.84002,394.34222 625.28125,397.03125 C 628.36855,398.23872 631.39246,399.58805 634.4375,400.875 C 637.48254,402.16195 640.54872,403.38652 643.71875,404.34375 C 647.84488,398.00986 652.24354,391.84038 656.875,385.875 C 661.50646,379.90962 666.37071,374.14832 671.46875,368.59375 z M 798.375,369.84375 C 797.36458,372.30208 796.35417,374.76042 795.34375,377.21875 C 789.97665,390.34109 784.63349,403.46942 779.125,416.53125 C 773.61651,429.59308 767.94268,442.5884 761.90625,455.40625 C 770.42755,464.29082 777.69902,472.02942 783.875,478.8125 C 790.05098,485.59558 795.13857,491.43518 799.3125,496.5 C 803.48643,501.56482 806.73485,505.86395 809.25,509.59375 C 810.50757,511.45865 811.59276,513.17825 812.5,514.78125 C 812.95362,515.58275 813.37588,516.35056 813.75,517.09375 C 814.12412,517.83694 814.45009,518.5555 814.75,519.25 C 812.26499,519.09505 809.26588,519.00491 805.46875,518.6875 C 801.67162,518.37009 797.06193,517.81226 791.28125,516.6875 C 788.39091,516.12512 785.19962,515.44763 781.6875,514.5625 C 778.17538,513.67737 774.34283,512.601 770.125,511.3125 C 765.90717,510.024 761.31997,508.52248 756.3125,506.75 C 751.30503,504.97752 745.88103,502.93082 740,500.59375 C 718.62962,542.49048 697.41755,584.48235 675.75,626.21875 C 664.91622,647.08695 653.9852,667.89095 642.84375,688.59375 C 631.7023,709.29655 620.35471,729.8899 608.75,750.34375 C 613.91196,747.25764 618.99966,744.37155 624.03125,741.65625 C 629.06284,738.94095 634.02966,736.3867 638.96875,734 C 643.90784,731.6133 648.83427,729.38158 653.71875,727.28125 C 658.60323,725.18092 663.44476,723.23117 668.3125,721.375 C 673.18024,719.51883 678.04862,717.77923 682.9375,716.125 C 687.82638,714.47077 692.7396,712.90075 697.6875,711.40625 C 707.5833,708.41724 717.64085,705.69718 728,703.09375 C 727.40103,698.09023 727.03524,693.00941 726.9375,687.90625 C 726.83976,682.80309 727.01265,677.67624 727.4375,672.5625 C 727.86235,667.44876 728.56243,662.34775 729.53125,657.3125 C 730.50007,652.27725 731.74709,647.30521 733.28125,642.4375 C 734.81541,637.56979 736.62913,632.7986 738.75,628.1875 C 739.81043,625.88195 740.94513,623.63095 742.15625,621.40625 C 743.36737,619.18155 744.66678,617.00772 746.03125,614.875 C 747.39572,612.74228 748.82325,610.6546 750.34375,608.625 C 751.86425,606.5954 753.47705,604.60285 755.15625,602.6875 C 756.83545,600.77215 758.56568,598.91497 760.40625,597.125 C 762.24682,595.33503 764.18289,593.6222 766.1875,591.96875 C 767.61753,590.92046 769.10296,589.94262 770.625,589.0625 C 772.14704,588.18238 773.71377,587.40123 775.3125,586.6875 C 776.91123,585.97377 778.52737,585.33038 780.1875,584.78125 C 781.84763,584.23212 783.54379,583.76133 785.25,583.375 C 788.66242,582.60235 792.15133,582.16344 795.65625,582.03125 C 799.16117,581.89906 802.68128,582.0998 806.15625,582.59375 C 809.63122,583.0877 813.05243,583.89425 816.375,585 C 819.69757,586.10575 822.92103,587.48428 825.96875,589.1875 C 827.49261,590.03911 828.97406,590.97046 830.40625,591.96875 C 831.83844,592.96704 833.23729,594.04432 834.5625,595.1875 C 835.88771,596.33068 837.14082,597.55747 838.34375,598.84375 C 839.54668,600.13003 840.68466,601.47867 841.75,602.90625 C 844.79251,606.24277 847.55831,609.76883 850.0625,613.4375 C 852.56669,617.10617 854.81342,620.932 856.8125,624.875 C 858.81158,628.818 860.56656,632.87173 862.09375,637.03125 C 863.62094,641.19077 864.91149,645.43177 866,649.75 C 867.08851,654.06823 867.9732,658.45588 868.65625,662.875 C 869.3393,667.29412 869.8142,671.75654 870.125,676.21875 C 870.4358,680.68096 870.59074,685.14627 870.5625,689.59375 C 870.53426,694.04123 870.33406,698.46881 870,702.84375 C 870.05586,703.26014 870.23252,703.60343 870.5,703.90625 C 870.76748,704.20907 871.13178,704.47158 871.5625,704.6875 C 872.42394,705.11934 873.55708,705.41203 874.78125,705.65625 C 876.00542,705.90047 877.30011,706.10508 878.5,706.375 C 879.69989,706.64492 880.80512,706.9598 881.59375,707.46875 C 891.10502,710.32178 900.19733,713.11217 909.125,716.0625 C 918.05267,719.01283 926.80145,722.14719 935.625,725.65625 C 940.03678,727.41078 944.4931,729.23802 948.96875,731.21875 C 953.4444,733.19948 957.96304,735.32913 962.5625,737.59375 C 967.162,739.85837 971.8418,742.26882 976.625,744.875 C 981.4082,747.48118 986.2856,750.27583 991.3125,753.28125 C 990.3999,751.4335 989.5413,749.7422 988.7188,748.1875 C 987.8961,746.6328 987.1095,745.21471 986.3438,743.875 C 984.8121,741.19558 983.3478,738.85284 981.8125,736.625 C 978.7419,732.16933 975.3696,728.06756 970.5,722.03125 C 969.0257,720.79666 967.5237,719.56563 966,718.3125 C 964.47632,717.05937 962.94171,715.79929 961.375,714.53125 C 958.24157,711.99517 955.01763,709.41775 951.75,706.84375 C 948.48238,704.26976 945.15074,701.67775 941.8125,699.09375 C 938.47426,696.50975 935.12943,693.93376 931.78125,691.375 C 918.38853,681.13995 905.1449,671.2039 893.96875,662.53125 C 894.4352,662.54195 895.03383,662.36823 895.75,662.0625 C 896.46617,661.75677 897.31525,661.3428 898.3125,660.8125 C 900.30699,659.75189 902.88062,658.31395 906.1875,656.90625 C 907.84094,656.2024 909.65894,655.49658 911.6875,654.84375 C 913.71606,654.19092 915.93998,653.6037 918.375,653.09375 C 920.81002,652.5838 923.47092,652.1502 926.34375,651.875 C 929.21658,651.5998 932.31426,651.47984 935.65625,651.53125 C 932.59997,645.76041 929.565,639.96963 926.53125,634.1875 C 917.43001,616.84112 908.4211,599.45722 899.53125,582 C 896.56797,576.18093 893.62639,570.3628 890.6875,564.53125 C 881.87083,547.0366 873.15493,529.47896 864.5625,511.875 C 853.10593,488.40306 841.84798,464.82652 830.8125,441.15625 C 819.77702,417.48598 808.96483,393.71504 798.375,369.84375 z M 1081.5938,635.0625 L 1080.75,635.5625 L 1080.125,635.9375 C 1078.3235,637.2645 1075.5225,638.18792 1073.6875,639.5 C 1073.2288,639.82802 1072.8379,640.17428 1072.5312,640.5625 C 1072.2247,640.95072 1071.9991,641.37088 1071.9062,641.84375 C 1071.8135,642.31662 1071.8487,642.85552 1072.0312,643.4375 C 1072.2139,644.01948 1072.5428,644.65946 1073.0625,645.375 C 1074.811,651.27411 1076.3328,657.23456 1077.625,663.25 C 1078.5585,658.57705 1079.3648,653.91119 1080.0312,649.21875 C 1080.6978,644.52631 1081.2242,639.80728 1081.5938,635.0625 z M 731.3125,865.625 L 730.3125,865.78125 L 730.125,865.8125 C 724.31981,866.65636 718.4867,867.27455 712.625,867.6875 C 706.7633,868.10045 700.87301,868.30818 695,868.3125 C 701.3611,870.74356 707.817,872.96094 714.34375,874.90625 C 720.8705,876.85156 727.4681,878.52482 734.125,879.875 C 733.83591,878.70191 733.57982,877.5303 733.34375,876.34375 C 732.63553,872.78409 732.0978,869.17063 731.3125,865.625 z "
       style="opacity:0.55910543;fill:url(#linearGradient11356);fill-opacity:1;fill-rule:evenodd;stroke:#fff0ff;stroke-width:7;stroke-linecap:round;stroke-linejoin:round;stroke-miterlimit:10;stroke-dasharray:none;stroke-opacity:0" />
    <text
       id="text2634"
       y="1127.1483"
       x="1552.2935"
       style="font-size:7.38313341px;font-style:normal;font-weight:normal;fill:#000082;fill-opacity:1;stroke:none;stroke-width:1px;stroke-linecap:butt;stroke-linejoin:miter;stroke-opacity:1;font-family:DejaVu Sans Mono"
       xml:space="preserve"><tspan
         y="1127.1483"
         x="1552.2935"
         id="tspan2636"
         sodipodi:role="line">TM</tspan></text>
  </g>
</svg>
